<svg width="50" height="50" viewBox="0 0 50 50" fill="none" xmlns="http://www.w3.org/2000/svg">
<path d="M44.7327 11.3098L44.7327 11.3098C44.8063 10.4823 44.6366 9.99749 44.3921 9.71235C44.1466 9.42614 43.7862 9.29489 43.3799 9.25982C42.9735 9.22474 42.5494 9.28905 42.2199 9.36582C42.0567 9.40386 41.92 9.44417 41.8246 9.47477C41.777 9.49005 41.7399 9.50286 41.7151 9.51168L41.6875 9.5217L41.6817 9.52388C38.9475 10.6444 36.1288 11.7826 33.2804 12.9329C24.4507 16.4985 15.3361 20.1792 7.57061 23.8022L7.56061 23.8068L7.55025 23.8106C6.51132 24.1879 5.91428 24.5552 5.59013 24.877C5.27474 25.1901 5.22753 25.4477 5.25787 25.6414C5.29109 25.8533 5.42623 26.0465 5.57576 26.1978C5.64824 26.2712 5.71864 26.3291 5.77068 26.3685C5.79302 26.3855 5.8117 26.3987 5.82533 26.4081L12.47 28.4376C12.4703 28.4377 12.4706 28.4378 12.4709 28.4379C13.9748 28.8856 15.1173 28.8579 15.8757 28.7244C16.2556 28.6574 16.5409 28.5636 16.7284 28.4883C16.8222 28.4506 16.8916 28.4175 16.9362 28.3947C16.9584 28.3833 16.9745 28.3745 16.9843 28.3689L16.9928 28.364L31.3769 18.6751L44.7327 11.3098ZM44.7327 11.3098L44.7324 11.314M44.7327 11.3098L44.7324 11.314M44.7324 11.314C44.6833 11.9969 44.4403 13.527 44.1174 15.5614L44.0924 15.7184C43.7585 17.822 43.3471 20.4256 42.9869 23.132C42.9868 23.1329 42.9867 23.1337 42.9866 23.1346L40.5205 39.1483L40.5192 39.1564M44.7324 11.314L40.5192 39.1564M40.5192 39.1564L40.5185 39.1643M40.5192 39.1564L40.5185 39.1643M40.5185 39.1643L40.5185 39.1643M40.5185 39.1643L40.5185 39.1643M40.5185 39.1643L40.5185 39.1644M40.5185 39.1643L40.5185 39.1644M40.5185 39.1644L40.5185 39.1646M40.5185 39.1644L40.5185 39.1646M40.5185 39.1646L40.5185 39.1648L40.5181 39.1683L40.5164 39.1847C40.5147 39.1998 40.5119 39.2229 40.5076 39.2529C40.4991 39.3129 40.4848 39.4005 40.462 39.5074C40.4163 39.722 40.3374 40.0106 40.205 40.3095C39.9386 40.9105 39.4737 41.5172 38.658 41.6971C37.8195 41.882 36.7295 41.5586 35.7463 41.1023C34.7751 40.6515 33.9696 40.1008 33.728 39.9089L33.728 39.9088L33.7218 39.9041C33.6299 39.8357 33.2414 39.5833 32.6725 39.2137C32.5528 39.136 32.4252 39.0531 32.2907 38.9656C31.5088 38.4572 30.4787 37.7851 29.3815 37.0526C27.1817 35.5841 24.7289 33.884 23.4584 32.7742L23.4559 32.7721C23.1151 32.4821 22.7818 32.072 22.7056 31.5965C22.6331 31.1439 22.7835 30.5612 23.5606 29.8862L23.5608 29.8864L23.5684 29.8792L34.361 19.6761L34.3611 19.6762L34.3654 19.6719C34.6906 19.3491 35.0139 18.9214 35.2346 18.5134C35.345 18.3095 35.4342 18.1023 35.4831 17.9095C35.5303 17.7234 35.5493 17.5147 35.4737 17.3325C35.388 17.1259 35.2055 17.009 34.9769 16.9806C34.7646 16.9541 34.5029 17.0005 34.1951 17.1057C33.575 17.3176 32.6663 17.8047 31.3771 18.6749L40.5185 39.1646Z" fill="#F8F1F1" stroke="#F8F1F1" stroke-width="0.5"/>
</svg>
