<svg width="25" height="30" viewBox="0 0 25 30" fill="none" xmlns="http://www.w3.org/2000/svg">
<path fill-rule="evenodd" clip-rule="evenodd" d="M9.06899 2.07982C7.39848 2.97873 6.03176 3.73937 6.03206 3.77031C6.0328 3.85016 10.0413 5.94719 10.1836 5.94208C10.2483 5.93984 10.7178 5.71659 11.2269 5.44603L12.1526 4.9542L13.1636 5.491L14.1745 6.02791L15.8301 5.25944C18.3248 4.10147 18.5839 3.97458 18.5433 3.93195C18.4894 3.87539 17.5946 3.37885 15.167 2.05864C13.9938 1.42057 12.855 0.794968 12.6364 0.668377C12.4179 0.541786 12.2092 0.439951 12.1727 0.441923C12.1363 0.443894 10.7395 1.18096 9.06899 2.07982ZM1.74213 5.99904L0.00313733 6.92691V10.9991C0.00313733 13.2389 0.0259719 15.0713 0.0539815 15.0713C0.0818941 15.0713 0.93748 14.6882 1.95524 14.22L3.80571 13.3686V9.07622L4.70998 9.58512C5.40679 9.97692 6.10402 10.3679 6.80167 10.7581L7.98907 11.4222L8.51744 11.1754C8.84881 11.0204 9.17951 10.8638 9.50955 10.7058C9.76457 10.5831 10.3906 10.2918 10.9007 10.0584C11.4108 9.82487 11.883 9.59003 11.9499 9.53651C12.0389 9.46541 10.9543 8.84632 7.93852 7.24658C5.66525 6.0407 3.73236 5.05791 3.64322 5.06262C3.55408 5.06733 2.69859 5.48867 1.74213 5.99904ZM18.8567 6.25961C17.6723 6.81191 16.7025 7.28587 16.7014 7.3129C16.7003 7.33989 17.3459 7.73637 18.1359 8.19382C18.926 8.65137 19.5724 9.05019 19.5724 9.08023C19.5724 9.1102 18.8733 9.4601 18.0189 9.85795C17.1644 10.2557 15.0047 11.2632 13.2194 12.0969L7.23728 14.8901C5.73249 15.5927 4.37609 16.2261 4.22308 16.2977C1.14946 17.735 0.304645 18.1338 0.188628 18.2022C0.0719646 18.2712 0.0455398 18.6716 0.0247752 20.6813L0 23.0783L1.55508 23.8968L3.11013 24.7152L5.26645 23.71C6.45246 23.1571 7.42277 22.6758 7.42277 22.6404C7.42277 22.605 7.20361 22.4575 6.93587 22.3125C6.668 22.1674 6.11505 21.8463 5.70697 21.5987C5.29892 21.3511 4.89204 21.1239 4.80271 21.0938C4.71341 21.0638 4.64163 21.0112 4.64309 20.9769C4.64458 20.9427 5.59412 20.4768 6.75306 19.9415C9.00408 18.9019 10.7267 18.1006 14.425 16.373C16.0788 15.6006 17.7327 14.8288 19.3869 14.0573C20.8407 13.3795 22.531 12.5879 23.1431 12.2981L24.256 11.7714L24.2808 9.34707L24.3057 6.9229L22.7284 6.08664C21.8609 5.62675 21.1194 5.25159 21.0805 5.25296C21.0417 5.25423 20.041 5.70717 18.8567 6.25961ZM23.8335 15.0055C23.6011 15.1227 23.142 15.3423 22.8133 15.4933C22.4846 15.6444 21.8609 15.9351 21.4273 16.1395L20.639 16.5109L20.621 18.6392C20.611 19.8097 20.5693 20.7622 20.5282 20.7561C20.4349 20.7417 18.9574 19.959 17.4722 19.1369C16.4002 18.5436 16.3329 18.52 16.081 18.6489C15.9354 18.7234 15.065 19.1267 14.1468 19.5451C13.2286 19.9635 12.4474 20.3332 12.4107 20.3667C12.3741 20.4001 14.222 21.4347 16.5174 22.6659L20.6906 24.9045L22.4734 23.9519C23.4538 23.428 24.2875 22.9501 24.3259 22.89C24.4123 22.7549 24.4049 14.7737 24.3184 14.7845C24.2842 14.7887 24.0659 14.8882 23.8335 15.0055ZM13.9613 24.3734C13.6521 24.5107 13.3429 24.6482 13.0339 24.786C12.1006 25.2031 12.2835 25.2169 11.1731 24.6459C10.4336 24.2656 10.1148 24.1483 9.97643 24.2053C9.87264 24.248 8.9794 24.6631 7.9913 25.1277C7.00327 25.5923 6.16059 25.9725 6.11867 25.9725C5.70412 25.9725 6.3933 26.3978 9.05269 27.7836L12.1715 29.4085L13.4838 28.7393C14.2055 28.3712 15.6612 27.6342 16.7188 27.1014C17.7763 26.5685 18.6284 26.1187 18.6125 26.1018C18.5964 26.0848 17.7103 25.6148 16.6433 25.0573L14.7033 24.0437L13.9613 24.3734Z" fill="white"/>
</svg>
