<svg width="29" height="25" viewBox="0 0 29 25" fill="none" xmlns="http://www.w3.org/2000/svg">
<path fill-rule="evenodd" clip-rule="evenodd" d="M26.7383 7.34555C26.6607 7.34099 26.578 7.33916 26.4903 7.34007H23.0299C20.1958 7.34007 17.7715 9.57116 17.7715 12.4793C17.7715 15.3874 20.1972 17.6184 23.0299 17.6184H26.4903C26.578 17.6194 26.6611 17.6175 26.7397 17.613C27.3222 17.5778 27.872 17.3322 28.2868 16.9217C28.7015 16.5112 28.9529 15.964 28.9941 15.3819C28.9996 15.2996 28.9996 15.2106 28.9996 15.1283V9.83018C28.9996 9.74795 28.9996 9.65887 28.9941 9.57665C28.9529 8.99457 28.7015 8.4473 28.2868 8.03683C27.872 7.62636 27.3208 7.38067 26.7383 7.34555ZM22.727 13.8497C23.4561 13.8497 24.0468 13.2357 24.0468 12.4793C24.0468 11.7228 23.4561 11.1088 22.727 11.1088C21.9966 11.1088 21.4059 11.7228 21.4059 12.4793C21.4059 13.2357 21.9966 13.8497 22.727 13.8497Z" fill="#F8F1F1"/>
<path fill-rule="evenodd" clip-rule="evenodd" d="M26.4892 19.6746C26.5365 19.6727 26.5837 19.682 26.6268 19.7017C26.6699 19.7215 26.7078 19.7511 26.7373 19.7882C26.7668 19.8253 26.7871 19.8689 26.7966 19.9153C26.8061 19.9618 26.8046 20.0098 26.792 20.0556C26.5179 21.0313 26.0808 21.8645 25.3805 22.5635C24.354 23.5913 23.0534 24.0449 21.4473 24.2615C19.885 24.4711 17.891 24.4711 15.3721 24.4711H12.4777C9.95879 24.4711 7.96342 24.4711 6.40247 24.2615C4.79631 24.0449 3.49575 23.5899 2.46928 22.5648C1.44419 21.5384 0.989198 20.2378 0.772667 18.6317C0.562988 17.0693 0.562988 15.0753 0.562988 12.5565V12.403C0.562988 9.88408 0.562988 7.88871 0.772667 6.32639C0.989198 4.72023 1.44419 3.41967 2.46928 2.39321C3.49575 1.36811 4.79631 0.91312 6.40247 0.696589C7.96479 0.488281 9.95879 0.488281 12.4777 0.488281H15.3721C17.891 0.488281 19.8863 0.488281 21.4473 0.69796C23.0534 0.914491 24.354 1.36948 25.3805 2.39458C26.0808 3.09625 26.5179 3.92811 26.792 4.90387C26.8046 4.9496 26.8061 4.99764 26.7966 5.04409C26.7871 5.09055 26.7668 5.1341 26.7373 5.17122C26.7078 5.20833 26.6699 5.23797 26.6268 5.25771C26.5837 5.27746 26.5365 5.28676 26.4892 5.28485H23.0301C19.1422 5.28485 15.7161 8.35466 15.7161 12.4797C15.7161 16.6048 19.1422 19.6746 23.0301 19.6746H26.4892ZM5.70217 5.97008C5.42957 5.97008 5.16814 6.07837 4.97538 6.27112C4.78263 6.46388 4.67434 6.72532 4.67434 6.99791C4.67434 7.27051 4.78263 7.53195 4.97538 7.7247C5.16814 7.91746 5.42957 8.02575 5.70217 8.02575H11.184C11.4566 8.02575 11.718 7.91746 11.9108 7.7247C12.1035 7.53195 12.2118 7.27051 12.2118 6.99791C12.2118 6.72532 12.1035 6.46388 11.9108 6.27112C11.718 6.07837 11.4566 5.97008 11.184 5.97008H5.70217Z" fill="#F8F1F1"/>
</svg>
